<?xml version="1.0" encoding="utf-8"?>
<!-- Generator: Adobe Illustrator 24.0.1, SVG Export Plug-In . SVG Version: 6.00 Build 0)  -->
<svg version="1.1" id="레이어_1" xmlns="http://www.w3.org/2000/svg" xmlns:xlink="http://www.w3.org/1999/xlink" x="0px"
	 y="0px" viewBox="0 0 52 30" style="enable-background:new 0 0 52 30;" xml:space="preserve">
<style type="text/css">
	.st0{fill:#44207A;}
	.st1{fill:#EC0080;}
	.st2{fill:#85288F;}
	.st3{fill:#FCB832;}
	.st4{fill:#F5841E;}
</style>
<g>
	<polygon class="st0" points="29.8,20 35.9,20 35.9,21.5 31.4,21.5 31.4,23.8 35.7,23.8 35.7,25.2 31.4,25.2 31.4,27.7 36.1,27.7 
		36.1,29.2 29.8,29.2 	"/>
	<polygon class="st0" points="39.6,21.5 36.8,21.5 36.8,20 44.1,20 44.1,21.5 41.3,21.5 41.3,29.2 39.6,29.2 	"/>
	<path class="st0" d="M49.8,22c-0.4-0.5-1-0.7-1.6-0.7c-0.8,0-1.5,0.3-1.5,1.2c0,1.8,4.4,0.8,4.4,4.1c0,2-1.6,2.9-3.4,2.9
		c-1.1,0-2.3-0.4-3-1.2l1.2-1.2c0.4,0.6,1.1,1,1.8,1c0.8,0,1.6-0.4,1.6-1.3c0-2-4.4-0.9-4.4-4.2c0-1.9,1.7-2.8,3.4-2.8
		c1,0,1.9,0.3,2.6,0.9L49.8,22z"/>
	<path class="st1" d="M26.2,12.8H17c-0.2,0-0.4-0.2-0.4-0.4c0,0.2,0.2,0.5,0.4,0.6l9.2,5.3c0.2,0.1,0.4,0.1,0.4-0.2v-5.4
		c0-0.1,0-0.1,0-0.2C26.5,12.7,26.3,12.8,26.2,12.8"/>
	<path class="st2" d="M26.2,12.1L22,9.7l-5,2.9c-0.2,0.1-0.4,0.1-0.4-0.2c0,0.2,0.2,0.4,0.4,0.4h9.2c0.2,0,0.3-0.1,0.4-0.2
		C26.5,12.4,26.3,12.2,26.2,12.1"/>
	<path class="st3" d="M26.6,1.3c0-0.2-0.2-0.3-0.4-0.2L17,6.4c-0.2,0.1-0.4,0.4-0.4,0.6c0-0.2,0.2-0.4,0.4-0.4h9.2
		c0.2,0,0.3,0.1,0.4,0.2c0-0.1,0-0.1,0-0.2V1.3z"/>
	<path class="st4" d="M26.2,6.6H17c-0.2,0-0.4,0.2-0.4,0.4c0-0.2,0.2-0.3,0.4-0.2l5,2.9l4.2-2.4c0.2-0.1,0.3-0.3,0.4-0.4
		C26.5,6.7,26.3,6.6,26.2,6.6"/>
	<path class="st0" d="M17,12.6l5-2.9l-5-2.9c-0.2-0.1-0.4-0.1-0.4,0.2v5.4C16.6,12.6,16.8,12.7,17,12.6"/>
	<polygon class="st0" points="2.2,18.4 4.6,18.4 4.6,22.9 8.8,18.4 11.9,18.4 7.1,23.4 12.4,29.2 9,29.2 4.6,24.1 4.6,29.2 
		2.2,29.2 	"/>
	<path class="st0" d="M22.2,28.5c-1.4,0.7-3,1-4.6,1c-3.4,0-5.9-2.2-5.9-5.7c0-3.5,2.5-5.7,5.9-5.7c1.7,0,3.2,0.4,4.3,1.4l-1.7,1.8
		c-0.6-0.7-1.4-1-2.6-1c-2,0-3.4,1.5-3.4,3.5c0,2,1.3,3.5,3.4,3.5c1,0,1.8-0.3,2.3-0.5V25H18v-2.2h4.2V28.5z"/>
</g>
</svg>
